<svg width="25" height="26" viewBox="0 0 25 26" fill="none" xmlns="http://www.w3.org/2000/svg">
<path d="M23.2143 0.6875H1.78013C0.797991 0.6875 0 1.49665 0 2.48996V23.885C0 24.8783 0.797991 25.6875 1.78013 25.6875H23.2143C24.1964 25.6875 25 24.8783 25 23.885V2.48996C25 1.49665 24.1964 0.6875 23.2143 0.6875ZM7.5558 22.1161H3.85045V10.1853H7.56138V22.1161H7.5558ZM5.70312 8.5558C4.51451 8.5558 3.55469 7.5904 3.55469 6.40737C3.55469 5.22433 4.51451 4.25893 5.70312 4.25893C6.88616 4.25893 7.85156 5.22433 7.85156 6.40737C7.85156 7.59598 6.89174 8.5558 5.70312 8.5558ZM21.4453 22.1161H17.74V16.3125C17.74 14.9286 17.7121 13.1484 15.8147 13.1484C13.8839 13.1484 13.5882 14.6551 13.5882 16.2121V22.1161H9.88281V10.1853H13.4375V11.8147H13.4877C13.9844 10.8772 15.1953 9.88951 16.9978 9.88951C20.7478 9.88951 21.4453 12.3616 21.4453 15.5759V22.1161Z" fill="white"/>
</svg>
