<svg width="25" height="25" viewBox="0 0 25 25" fill="none" xmlns="http://www.w3.org/2000/svg">
<path d="M0 0V25H25V0H0ZM20.7701 5.92076L19.4308 7.20424C19.3136 7.29353 19.2578 7.43862 19.2801 7.57812V17.0257C19.2578 17.1708 19.3136 17.3158 19.4308 17.3996L20.7422 18.683V18.9676H14.1574V18.6942L15.5134 17.3772C15.6473 17.2433 15.6473 17.2042 15.6473 17.0033V9.36384L11.875 18.9397H11.3672L6.97545 9.36384V15.7812C6.93638 16.0491 7.03125 16.3225 7.22098 16.5179L8.98438 18.6551V18.9397H3.97321V18.6551L5.73661 16.5179C5.92634 16.3225 6.01004 16.0491 5.9654 15.7812V8.35938C5.98772 8.1529 5.9096 7.95201 5.75335 7.8125L4.18527 5.92076V5.63616H9.05692L12.8181 13.8951L16.1272 5.64174H20.7701V5.92076Z" fill="white"/>
</svg>
